<svg width="31" height="24" xmlns="http://www.w3.org/2000/svg"><g fill="none" fill-rule="evenodd"><path d="M10.862 22c9.434 0 14.594-7.695 14.594-14.368 0-.219 0-.437-.015-.653 1.004-.715 1.87-1.6 2.559-2.614-.936.408-1.93.676-2.946.794a5.082 5.082 0 002.255-2.793 10.377 10.377 0 01-3.257 1.226 5.193 5.193 0 00-6.162-.994c-2.047 1.078-3.104 3.374-2.579 5.6-4.124-.204-7.967-2.122-10.571-5.276-1.361 2.307-.666 5.259 1.588 6.74A5.152 5.152 0 014 9.032v.064c0 2.403 1.722 4.474 4.115 4.95a5.199 5.199 0 01-2.316.087c.672 2.057 2.598 3.466 4.792 3.506A10.395 10.395 0 013 19.732a14.688 14.688 0 007.862 2.264" stroke="#010B13"/><path d="M.5 0h30v24H.5z"/></g></svg>