<svg xmlns="http://www.w3.org/2000/svg" viewBox="0 0 295.17 295.17" style="enable-background:new 0 0 295.17 295.17" xml:space="preserve"><style>.st0{display:none}.st1{display:inline}.st2{fill:none;stroke-width:11.15}.st2,.st3{stroke:#000;stroke-miterlimit:10}</style><g id="Temp"><path d="M142.01.46h11.15v248.62h-11.15z"/><path d="M147.59 294.08c-13.77 0-24.98-11.2-24.98-24.98 0-13.77 11.2-24.98 24.98-24.98s24.98 11.2 24.98 24.98c-.01 13.77-11.21 24.98-24.98 24.98zm0-38.8c-7.62 0-13.83 6.2-13.83 13.83 0 7.62 6.2 13.83 13.83 13.83 7.62 0 13.83-6.2 13.83-13.83-.01-7.63-6.21-13.83-13.83-13.83zM189.72 158.25h38.03v11.15h-38.03zM189.72 117.56h38.03v11.15h-38.03zM189.72 76.1h38.03v11.15h-38.03z"/></g></svg>