<?xml version="1.0" encoding="UTF-8"?><svg width="38px" height="40px" version="1.1" xmlns="http://www.w3.org/2000/svg"><g id="🚀-Symbols" stroke="none" stroke-width="1" fill="none" fill-rule="evenodd"><g id="UI-/-Module-/-Footer-/-Desktop" transform="translate(-1228 -79)" fill="#384972" fill-rule="nonzero"><g id="UI-/-Module-/-Marquee-/-Desktop" transform="translate(0 58)"><g id="Marquee" transform="translate(647 9)"><g id="Recycling" transform="translate(581 12)"><path d="M33.736516 21.3051711l3.6832435 6.399273c1.628007 2.8278964-.3611674 6.3534174-3.5862879 6.4400363l-.1215167.0016282L22.543 34.146l3.7603336 3.7706423L24.2261081 40l-7.3031311-7.3246908 7.3031311-7.3246907 2.0772255 2.0833577L22.548 31.199l11.1639549.0007958c1.0069248 0 1.6461299-1.0631808 1.2031498-1.9488591l-.0394353-.073369-3.6833116-6.3993913 2.5441582-1.4730053zm-23.4919147-7.4470452l2.6729706 10.0061456-2.8375624.7624883L8.706 19.482l-5.581724 9.6968153c-.5036318.8748233.0948796 1.9620364 1.0807456 2.0201656l.0830368.0024354h7.3680919v2.9463127H4.2880584c-3.2556592 0-5.3051077-3.4910981-3.7671953-6.3357358l.059358-.1063628L6.164 18.004l-5.1356762 1.381453-.7603955-2.8458985 9.976673-2.6814286zM22.6353595 2.0251582l.0732067.1227103L28.292 11.847l1.376657-5.1495447 2.8375219.7626403-2.6735212 10.0060696-9.9761224-2.681434.760436-2.8458877L25.746 13.317l-5.5815594-9.6960695c-.5019994-.8722155-1.7334998-.8986463-2.279725-.0792687l-.0491578.0792946-3.6833115 6.3993912-2.5441582-1.4730053 3.6832966-6.3993653c1.6244444-2.8224447 5.6499929-2.8633497 7.3439748-.1228188z" id="Combined-Shape"/></g></g></g></g></g></svg>