<svg width="34" height="27" xmlns="http://www.w3.org/2000/svg"><g fill="none" fill-rule="evenodd"><path d="M11.744 24.75c10.691 0 16.54-8.657 16.54-16.164 0-.246 0-.491-.018-.735 1.138-.804 2.12-1.8 2.9-2.94-1.06.459-2.186.76-3.338.893a5.726 5.726 0 002.556-3.142 11.815 11.815 0 01-3.692 1.379c-1.802-1.873-4.665-2.33-6.984-1.118-2.319 1.213-3.517 3.795-2.922 6.3-4.674-.23-9.029-2.387-11.98-5.936-1.544 2.596-.755 5.916 1.8 7.584a5.872 5.872 0 01-2.64-.712v.072c.001 2.705 1.952 5.034 4.664 5.57a5.935 5.935 0 01-2.624.097c.761 2.314 2.943 3.9 5.43 3.945a11.838 11.838 0 01-8.603 2.355 16.737 16.737 0 008.91 2.548" stroke="#010B13" stroke-width="1.133"/><path d="M0 0h34v27H0z"/></g></svg>