<svg width="44" height="42" xmlns="http://www.w3.org/2000/svg"><g fill="none" fill-rule="evenodd"><path d="M-4-4h52v52H-4z"/><path d="m35.327 23.244 8.361 14.495H24.676l2.588 2.588-1.414 1.414-4.95-4.95 4.942-4.941 1.414 1.414-2.474 2.474h15.443l-6.63-11.494 1.732-1ZM12.88 18.476l1.808 6.75-1.931.518-.906-3.38L4.13 35.74l13.27.004-.001 2-16.734-.006 9.507-16.464-3.536.946-.518-1.932 6.762-1.811ZM22.103.8l9.505 16.466.948-3.536 1.932.517-1.812 6.762-6.75-1.809.518-1.932 3.38.906L22.1 4.8l-6.639 11.49-1.731-1.001L22.103.8Z" fill="#010B13" fill-rule="nonzero"/></g></svg>