<svg width="52" height="52" xmlns="http://www.w3.org/2000/svg"><g fill="none" fill-rule="evenodd"><path d="M0 0h52v52H0z"/><path d="M25.983.667l-1.205 1.702-1.185 1.69-1.134 1.636-1.085 1.586-1.034 1.537-.662.997-.953 1.456-.608.945-.587.924-.566.904-.544.884-.524.864-.502.845-.482.826-.462.808-.44.79-.422.77-.4.754-.193.37-.37.728-.352.71-.331.695-.158.34-.302.67c-.147.331-.285.656-.417.976l-.254.63c-.082.208-.16.414-.235.616l-.217.602-.197.586c-.094.29-.182.575-.262.854l-.151.552a18.348 18.348 0 00-.459 2.325c-.19.985-.29 2.053-.29 3.134 0 9.389 7.611 17 17 17s17-7.611 17-17c0-1.056-.096-2.1-.286-3.121-.265-2.284-1.113-4.997-2.546-8.153l-.37-.798-.195-.406-.407-.827c-.07-.139-.14-.279-.213-.42l-.444-.854a77.206 77.206 0 00-.468-.872l-.493-.892-.517-.91-.542-.93a107.56 107.56 0 00-.566-.947l-.59-.967-.616-.986-.64-1.005c-.217-.338-.438-.68-.664-1.024l-.689-1.043-.713-1.063-.738-1.081-.763-1.101-.787-1.12-.812-1.14-.415-.577-.848-1.17-.874-1.188-.821-1.111zm.033 3.417l.473.648.831 1.152.806 1.132.781 1.113.756 1.092.37.538.718 1.063.694 1.043.337.514.657 1.013.319.499.62.983.594.963.57.944.544.925.52.904.25.445.483.875c.157.288.31.573.458.855l.433.836c.421.826.805 1.623 1.152 2.39l.334.758.31.738c.94 2.306 1.51 4.32 1.711 6.043.178.969.263 1.89.263 2.823 0 8.284-6.716 15-15 15-8.284 0-15-6.716-15-15 0-.955.09-1.898.265-2.821.11-.876.317-1.822.623-2.847l.177-.567c.124-.384.262-.777.413-1.182l.237-.616.126-.314.267-.642.142-.327.298-.667c.051-.113.104-.226.157-.34l.33-.695.35-.713.372-.73.393-.751.414-.77c.07-.13.143-.26.215-.392l.447-.799.232-.407.48-.83.502-.85.524-.87.546-.892.282-.454.879-1.395.614-.958.638-.98.66-1.003.684-1.026.708-1.049.73-1.073 1.142-1.655 1.169-1.674z" fill="#010B13"/></g></svg>