<svg xmlns="http://www.w3.org/2000/svg" viewBox="0 0 295.17 295.17" style="enable-background:new 0 0 295.17 295.17" xml:space="preserve"><style>.st0{display:none}.st1{display:inline}.st2,.st3{fill:none;stroke-width:11.15}.st2{stroke:#000;stroke-miterlimit:10}.st3{display:inline}.st3,.st4{stroke:#000;stroke-miterlimit:10}</style><g id="flexible"><path class="st4" d="m13.96 6.9 115.9 115.9c7.39 7.39 11.1 15.58 11.03 24.35-.1 14.43-10.65 24.84-11.09 25.28L13.96 288.28l-7.07-7.07 115.9-115.9c.11-.11 8.09-8.09 8.12-18.31.01-5.95-2.72-11.72-8.12-17.12L6.89 13.97l7.07-7.07zM281.21 288.27l-115.9-115.9c-7.39-7.39-11.1-15.58-11.03-24.35.1-14.43 10.65-24.84 11.09-25.28L281.21 6.89l7.07 7.07-115.9 115.9c-.11.11-8.09 8.09-8.12 18.31-.01 5.95 2.72 11.72 8.12 17.12l115.9 115.9-7.07 7.08z"/><path class="st4" d="M294.54 40.39V.63H254.78v10h29.76v29.76zM254.92 294.67h39.75v-39.75h-10v29.75h-29.75zM.63 254.78V294.54H40.39v-10H10.63v-29.76zM40.26.5H.5V40.26h10V10.5h29.76z"/></g></svg>