<?xml version="1.0" standalone="no"?>
<!DOCTYPE svg PUBLIC "-//W3C//DTD SVG 20010904//EN"
 "http://www.w3.org/TR/2001/REC-SVG-20010904/DTD/svg10.dtd">
<svg version="1.0" xmlns="http://www.w3.org/2000/svg"
 width="70.000000pt" height="70.000000pt" viewBox="0 0 70.000000 70.000000"
 preserveAspectRatio="xMidYMid meet">
<metadata>
Created by potrace 1.11, written by Peter Selinger 2001-2013
</metadata>
<g transform="translate(0.000000,70.000000) scale(0.100000,-0.100000)"
fill="#000000" stroke="none">
<path d="M0 350 l0 -350 350 0 350 0 0 350 0 350 -350 0 -350 0 0 -350z m520
246 c0 -40 -14 -76 -29 -76 -18 0 -41 -18 -41 -32 0 -4 12 -8 26 -8 19 0 24
-4 20 -17 -3 -10 -8 -30 -12 -45 -5 -21 -12 -28 -30 -28 -13 0 -24 -2 -24 -5
0 -5 -44 -216 -55 -262 -5 -21 -11 -23 -75 -23 -68 0 -70 1 -65 22 11 47 55
258 55 263 0 3 -9 5 -21 5 -15 0 -19 5 -16 18 3 9 8 29 11 45 4 18 13 27 26
27 11 0 21 9 25 23 25 86 51 106 148 107 42 0 57 -4 57 -14z"/>
</g>
</svg>
